<svg xmlns="http://www.w3.org/2000/svg" xmlns:xlink="http://www.w3.org/1999/xlink" width="500" zoomAndPan="magnify" viewBox="0 0 375 374.999991" height="500" preserveAspectRatio="xMidYMid meet" version="1.2"><defs/><g id="31eef4aac5"><path style=" stroke:none;fill-rule:nonzero;fill:#bae1f6;fill-opacity:1;" d="M 180.085938 25.414062 L 193.96875 26.800781 L 205.425781 31.621094 L 204.519531 39.902344 L 193.992188 50.46875 L 196.476562 55.984375 L 186.886719 59.160156 L 185.628906 68.863281 L 189.894531 75.871094 L 196.667969 79.367188 L 196.730469 88.253906 L 203.601562 88.535156 L 210.957031 93.050781 L 219.78125 88.933594 L 217.332031 90.941406 L 210.730469 96.90625 L 212.59375 101.082031 L 218.921875 95.234375 L 223.992188 96.265625 L 230.1875 98.671875 L 234.15625 103.835938 L 238.820312 108.261719 L 243.894531 109.441406 L 249.925781 111.574219 L 257.359375 110.945312 L 267.867188 113.984375 L 268.082031 120.835938 L 260.835938 123.328125 L 254.105469 122.289062 L 258.195312 128.515625 L 253.855469 131.992188 L 260.472656 134.039062 L 267.628906 136.828125 L 276.367188 141.425781 L 278.976562 146.042969 L 278.890625 150.699219 L 272.578125 145.269531 L 271.957031 142.648438 L 264.382812 146.699219 L 270.761719 145.921875 L 279.695312 152.488281 L 282.570312 157.6875 L 283.667969 162.800781 L 284.976562 156.238281 L 286.605469 162.234375 L 286.847656 171.988281 L 285.355469 171.289062 L 283.632812 171.953125 L 283.503906 185.429688 L 285.390625 190.515625 L 286.257812 201.316406 L 284.226562 213.914062 L 282.546875 219.957031 L 278.039062 225.742188 L 276.574219 225.546875 L 266.519531 233.441406 L 258.488281 238.480469 L 254.191406 246.546875 L 255.277344 248.675781 L 253.910156 250.308594 L 245.851562 254.59375 L 226.605469 262.203125 L 203.632812 268.816406 L 187.679688 272.339844 L 186.722656 271.339844 L 180.988281 270.632812 L 177.292969 270.253906 L 165.578125 267.703125 L 155.953125 264.453125 L 147.210938 260.488281 L 139.332031 255.914062 L 132.238281 250.84375 L 125.574219 245.265625 L 121.191406 240.863281 L 117.96875 236.976562 L 115.445312 233.382812 L 112.835938 228.335938 L 110.761719 221.90625 L 109.359375 212.011719 L 108.863281 206.8125 L 107.933594 204.929688 L 108.367188 212.957031 L 108.953125 220.964844 L 110.652344 227.59375 L 112.894531 232.78125 L 116.558594 238.476562 L 121.207031 243.734375 L 123.773438 247.761719 L 132.066406 255.1875 L 139.082031 259.726562 L 148.941406 265.003906 L 160 269.394531 L 169.773438 272.230469 L 175.058594 273.640625 L 168.449219 273.652344 L 158.777344 272.394531 L 150.617188 269.417969 L 138.3125 263.371094 L 133.066406 262.714844 L 139.582031 269.285156 L 134.027344 267.414062 L 123.855469 259.832031 L 117.863281 254.800781 L 111.417969 247.617188 L 106.941406 240.695312 L 104.222656 234.839844 L 101.929688 227.070312 L 100.445312 219.632812 L 99.867188 211.160156 L 99.601562 207.285156 L 101.726562 195.976562 L 105.15625 192.492188 L 109.175781 187.941406 L 114.304688 182.25 L 110.097656 184.601562 L 107.152344 186.300781 L 102.046875 192.03125 L 98.902344 195.007812 L 98.226562 198.859375 L 97.171875 207.4375 L 97.953125 211.707031 L 98.828125 215.203125 L 99.53125 223.285156 L 100.925781 228.976562 L 102.894531 235.289062 L 106.621094 243.222656 L 112.398438 251.480469 L 119.976562 259.242188 L 126.484375 264.917969 L 133.347656 270.132812 L 142.980469 276.078125 L 154.9375 281.605469 L 168.398438 285.902344 L 182.121094 288.632812 L 188.476562 290.507812 L 198.511719 288.65625 L 203.761719 287.644531 L 198.609375 290.902344 L 190.878906 292.507812 L 179.378906 291.90625 L 171.003906 291.234375 L 162.835938 289.378906 L 152.28125 285.957031 L 140.835938 280.78125 L 129.808594 274.003906 L 120.167969 266.226562 L 112.417969 258.460938 L 107.925781 252.59375 L 101.722656 240.148438 L 100.011719 236.179688 L 98 232.242188 L 95.917969 225.328125 L 94.519531 212.734375 L 94.808594 202.335938 L 94.097656 204.207031 L 93.550781 213.835938 L 93.910156 220.859375 L 95.019531 229.761719 L 99.214844 243.511719 L 99.054688 245.628906 L 96.730469 242.398438 L 91.402344 226.96875 L 90.238281 224.1875 L 91.636719 232 L 96.042969 243.816406 L 103.464844 255.363281 L 106.007812 259.421875 L 116.4375 270.398438 L 124.09375 277.074219 L 119.300781 274.882812 L 107.808594 264.621094 L 100.910156 257.132812 L 95.484375 251.910156 L 100.957031 261.367188 L 103.632812 266.796875 L 96.234375 257.519531 L 91.503906 247.976562 L 85.808594 238.816406 L 82.984375 228.472656 L 81.546875 230.027344 L 83.683594 241.054688 L 86.414062 250.789062 L 90.730469 259.09375 L 100.292969 271.347656 L 109.367188 280.617188 L 111.515625 287.644531 L 103.96875 286.535156 L 104.859375 289.300781 L 121.523438 301.492188 L 113.722656 298.21875 L 102.007812 290.222656 L 91.320312 281.050781 L 82.078125 270.9375 L 75.453125 260.773438 L 70.566406 254 L 67.875 248.019531 L 63.480469 227.894531 L 63.574219 237.816406 L 68.917969 254.273438 L 76.390625 269.222656 L 80.960938 277.175781 L 76.128906 282.535156 L 73.457031 284.316406 L 60.128906 261.230469 L 58.851562 258.628906 L 63.136719 269.785156 L 74.335938 286.652344 L 69.066406 284.300781 L 59.898438 270.546875 L 63.257812 279.164062 L 69.273438 289.917969 L 80.851562 304.101562 L 68.964844 295.054688 L 60.46875 282.65625 L 52.488281 267.234375 L 48.121094 254.230469 L 45.042969 235.082031 L 44.539062 238.917969 L 47.640625 257.847656 L 53.667969 274.476562 L 60.953125 288.371094 L 65.367188 296.78125 L 52.960938 283.984375 L 43.179688 268.730469 L 34.515625 252.75 L 30.476562 237.601562 L 26.871094 227.398438 L 24.480469 203.945312 L 25.121094 182.214844 L 27.777344 167.019531 L 33.242188 152.585938 L 25.121094 174.257812 L 22.550781 194.976562 L 22.847656 213.289062 L 25.8125 233.832031 L 29.625 248.214844 L 35.691406 265.28125 L 27.457031 247.640625 L 22.152344 226.371094 L 20.03125 206.085938 L 19.859375 194.457031 L 20.941406 178.359375 L 28.214844 155.25 L 42.152344 132.214844 L 53.148438 118.734375 L 46.457031 125.59375 L 34.527344 141.664062 L 21.765625 168.34375 L 17.714844 190.941406 L 21.023438 165.46875 L 31.988281 141.730469 L 40.269531 129.628906 L 50.402344 115.058594 L 60.269531 103.972656 L 60.714844 102.703125 L 46.238281 118.710938 L 31.96875 138.554688 L 21.078125 160.839844 L 15.707031 184.191406 L 15.09375 195.832031 L 15.488281 213.703125 L 13.867188 194.855469 L 13.246094 199.671875 L 14.136719 217.457031 L 17.664062 237.757812 L 15.527344 232.472656 L 12.972656 214.90625 L 12.3125 196.355469 L 14.039062 176.679688 L 23.320312 151.269531 L 34.03125 133.40625 L 46.265625 117.03125 L 56.65625 104.832031 L 66.140625 93.761719 L 74.328125 85.125 L 98.515625 65.339844 L 95.375 66.3125 L 79.121094 79.046875 L 67.074219 89.53125 L 57.714844 98.921875 L 43.203125 113.917969 L 33.558594 125.261719 L 20.578125 145.257812 L 10.777344 169 L 6.621094 193.980469 L 6.019531 209.398438 L 8.726562 234.695312 L 14.808594 257.503906 L 20.710938 272.242188 L 30.648438 289.835938 L 43.40625 305.855469 L 53.78125 316.996094 L 38.300781 301.984375 L 26.707031 286.871094 L 20.9375 277.851562 L 12.976562 260.984375 L 6.019531 237.027344 L 2.898438 208.257812 L 3.484375 186.003906 L 8.515625 161.382812 L 21.875 133.929688 L 38.671875 111.726562 L 48.765625 100.871094 L 41.382812 107.496094 L 26.808594 124.632812 L 14.457031 144.335938 L 1.519531 191.214844 L 2.390625 171.261719 L 0 190.957031 L 0.488281 210.980469 L 2.765625 229.570312 L 8.519531 251.746094 L 16.445312 271.425781 L 29.613281 293.8125 L 46.597656 313.519531 L 64.265625 328.316406 L 81.113281 339.476562 L 96.089844 347.40625 L 107.304688 352.289062 L 117.488281 356.054688 L 135.625 360.957031 L 151.117188 363.796875 L 174.0625 365.722656 L 193.625 366.054688 L 191.324219 367.46875 L 167.589844 367.726562 L 157.058594 367.820312 L 146.113281 366.9375 L 120.464844 361.265625 L 93.773438 350.96875 L 74.261719 340.257812 L 58.527344 329.398438 L 44.011719 317.027344 L 32.15625 304.359375 L 20.289062 288.117188 L 12.847656 275.652344 L 25.457031 297.230469 L 40.152344 314.851562 L 55.152344 328.507812 L 76.964844 343.601562 L 100.875 355.808594 L 119.957031 362.824219 L 133.367188 366.578125 L 140.898438 368.449219 L 156.242188 370.582031 L 175.457031 371.96875 L 208.648438 369.546875 L 221.964844 365.546875 L 229.601562 363.417969 L 237.582031 360.742188 L 251.699219 355.171875 L 275.761719 343.796875 L 294.558594 333.140625 L 311.433594 321.957031 L 319.414062 316.164062 L 329.210938 307.554688 L 344.230469 292.867188 L 359.460938 272.761719 L 369.28125 250.796875 L 374.863281 230.359375 L 377.519531 214.941406 L 379.441406 202.433594 L 382.175781 184.285156 L 382.492188 165.6875 L 379.597656 148.003906 L 375.464844 129.644531 L 371.101562 113.632812 L 362.351562 95.066406 L 353.589844 78.625 L 349.53125 64.910156 L 342.265625 62.359375 L 327.425781 44.964844 L 312.523438 33.296875 L 304.246094 31.371094 L 299.980469 31.191406 L 286.660156 22.761719 L 283.316406 18.039062 L 285.851562 17.878906 L 268.238281 6.855469 L 242.320312 0.0117188 L 225.132812 0.0429688 L 237.105469 1.300781 L 255.988281 7.71875 L 261.414062 12.160156 L 246.480469 7.1875 L 226.070312 3.738281 L 206.6875 3.394531 L 204.101562 6.453125 L 185.734375 11.546875 L 187.070312 18.113281 Z M 180.085938 25.414062 "/><g style="fill:#ffffff;fill-opacity:1;"><g transform="translate(97.78448, 263.751134)"><path style="stroke:none" d="M 153.890625 0.296875 L 122.109375 -74.15625 L 50.015625 -74.15625 L 17.0625 0.296875 L 10.296875 0.296875 L 94.15625 -188.3125 L 95.921875 -188.3125 L 176.546875 0.296875 Z M 52.375 -78.859375 L 120.046875 -78.859375 L 86.796875 -156.546875 Z M 52.375 -78.859375 "/></g></g></g></svg>